<svg xmlns="http://www.w3.org/2000/svg" viewBox="0 0 623.62 255.12"><defs><style>.cls-1{fill:#fff;}.cls-2{fill:#fb1a6f;}.cls-3{fill:#a3e300;}.cls-4{fill:#62d7f0;}.cls-5{fill:#2a2924;}</style></defs><g id="BG"><rect class="cls-1" width="623.62" height="255.12"/></g><g id="Logo"><path class="cls-2" d="M275.27,142.49H14.17V55.63H275.32q0,14.28.08,28.57c0,3.64-.06,7.27-.07,10.9Q275.29,118.8,275.27,142.49ZM33.05,115a9.82,9.82,0,0,0,1.06.12c5.69,0,11.38,0,17.07,0a11.48,11.48,0,0,0,3.31-.55,9.11,9.11,0,0,0,6.61-8.47c.11-4.3-1.72-6.82-6.08-8.41-.36-.14-.81-.1-.93-.56,1-.56,2.14-1,3.12-1.67a6.64,6.64,0,0,0,3.09-5.67c.14-5-3.79-9-9.39-9.18C46,80.48,41,80.55,36,80.56a6.76,6.76,0,0,0-3,.23Zm149.2-23c-5.12-4.76-14.86-3.76-17.73,4.41a15.64,15.64,0,0,0-.82,6.44c.49,6.39,4.11,10.54,10,11.25a10.39,10.39,0,0,0,8.71-3c-.33,3,1,6.27-2.82,7.57-2.76.94-4.87,0-6.89-3h-8.43a9,9,0,0,0,3.35,6.8c3.73,3.07,8.1,3.71,12.71,3.07,6.15-.86,11.14-4.67,10.8-12.71-.27-6.52,0-13.07-.06-19.61a10.43,10.43,0,0,0-.23-3.51c-1.36,0-2.73,0-4.11,0a18.37,18.37,0,0,0-4.31.18Zm65.56,0a10.73,10.73,0,0,0-13.53-.82c-5,3.71-6,9-4.92,14.68.88,4.47,3.4,7.89,7.92,9.35,3.92,1.27,7.56.81,10.51-2.74.07,1,.12,1.73.18,2.49h8.5V89.93h-8.53C247.9,90.65,247.86,91.23,247.81,92.05ZM116.27,108V80.69H99.67v7.12h7.81v20.25h-9.4v7h28.41V108ZM144.9,89.24c-8.26,0-14.1,5.37-14.14,13.06,0,7.87,5.77,13.53,13.93,13.57s14.07-5.5,14.11-13.37S153.17,89.27,144.9,89.24Zm-65.54,0c-8.35,0-14.21,5.42-14.18,13.22S71,115.81,79.07,115.88c8.22.06,14.09-5.48,14.15-13.34S87.62,89.29,79.36,89.24Zm118.17.62v25.19h8.58V103.3a8.91,8.91,0,0,1,.46-3.51,4.58,4.58,0,0,1,4.55-2.88c1.81.13,3.07,1.31,3.52,3.47a14,14,0,0,1,.2,2.75c0,3.94,0,7.89,0,11.87h8.76c-.22-6,.3-11.77-.29-17.56-.38-3.71-2.13-6.61-5.86-7.69-3.89-1.12-7.62-.82-10.53,2.52-.18.21-.33.61-.74.36-.26-.88.18-1.84-.35-2.77Z"/><path class="cls-3" d="M275.27,142.49q0-23.7.06-47.39c0-3.63,0-7.26.07-10.9H479.15v28.58a4.89,4.89,0,0,0-.19,2.34q0,27.94,0,55.89c-.79,0-1.58.05-2.38.05H275.27Zm35.15-24.32h18.46v-8c-3.45-.36-26.58-.22-28,.14-.23,2.9-.14,32.72.11,34.34h9.41v-12h17.36v-8.1H310.42Zm149.73,1H446.28v-7.39a29.22,29.22,0,0,0-8.63.12c-.3,2,.41,4.31-1,6.12-1.62,2-4.14.69-6.15,1.41v7.13h7.11c0,2.87,0,5.5,0,8.13a9.37,9.37,0,0,0,3.37,7.33c4.31,3.68,12.56,4.39,17.52,1.59v-7.26c-1,.39-1.9.7-2.75,1a10.25,10.25,0,0,1-6.8.34,3.08,3.08,0,0,1-2.49-2.78c-.13-2.74,0-5.49,0-8.49h13.77ZM425.9,144.58c0-5.93.25-11.75-.07-17.55-.29-5.31-4.13-8.4-9.45-8.36a9.18,9.18,0,0,0-7.88,4.16v-3.41H400v25.19h8.57c0-4,0-7.89,0-11.77a8.81,8.81,0,0,1,.78-4.05,4.3,4.3,0,0,1,4.84-2.27c1.94.34,2.73,1.75,3,3.47a17,17,0,0,1,.1,2.77v11.82Zm-47.34-25.91a12.76,12.76,0,0,0-10.33,5.81,13.69,13.69,0,0,0,2.21,17.5c5.23,4.5,14.38,4.44,19.4-.12a13.72,13.72,0,0,0,3.25-15.11C391.16,121.74,386.29,118.69,378.56,118.67Zm-17.85,0c-4.83,0-9.16.64-12.58,4.88v-4.23H334.65v7.28h4.65v10.8h-4.7v7.18h23.25v-7.32h-9.58a18.06,18.06,0,0,1,0-4.35c.13-1.46.23-2.92,1.47-4a7.66,7.66,0,0,1,4.82-1.53c2-.09,4.06,0,6.15,0Z"/><path class="cls-4" d="M478.93,171q0-27.94,0-55.89a4.89,4.89,0,0,1,.19-2.34l120.4,0h9.9v86.73h-130a3.47,3.47,0,0,1-.27-2.16c0-8.06,0-16.12,0-24.18A4.11,4.11,0,0,0,478.93,171Zm29.36-23.44h16.54v-8h-26V174h26v-8.16h-16.5v-5.11h14.87v-8.11H508.29Zm82.49,26.54V139.53h-8.71v11.6c-5.92-5.2-14.29-3.38-17.39,3.52a16.45,16.45,0,0,0-.64,11.79c1.74,5.78,6.21,8.76,12,8.23a9.38,9.38,0,0,0,6.07-3.31c.09,1.1.16,1.91.23,2.75Zm-32.92,0c0-3.23,0-6.26,0-9.29s.26-6.07-.28-9.09a8.74,8.74,0,0,0-9.35-7.62,9.1,9.1,0,0,0-7.73,4l-.17-3.22h-8.51V174h8.61c0-4.38,0-8.61,0-12.83.06-3.41,1.9-5.35,4.85-5.28,2.47.06,3.82,1.85,3.86,5.21,0,2.78,0,5.55,0,8.32a16.93,16.93,0,0,0,.2,4.66Z"/><path class="cls-5" d="M33.05,115V80.79a6.76,6.76,0,0,1,3-.23c5,0,9.93-.08,14.88.08,5.6.18,9.53,4.15,9.39,9.18a6.64,6.64,0,0,1-3.09,5.67c-1,.64-2.07,1.11-3.12,1.67.12.46.57.42.93.56,4.36,1.59,6.19,4.11,6.08,8.41a9.11,9.11,0,0,1-6.61,8.47,11.48,11.48,0,0,1-3.31.55c-5.69,0-11.38,0-17.07,0A9.82,9.82,0,0,1,33.05,115Zm9.64-13.79v6.29c2.2-.07,4.24.22,6.27-.25,1.78-.42,2.76-1.43,2.67-3.34s-1.45-2.58-3.07-2.67C46.66,101.16,44.74,101.25,42.69,101.25Zm-.08-7.33a22.61,22.61,0,0,0,5.65-.09c1.63-.31,2.63-1.13,2.58-2.94a2.58,2.58,0,0,0-2.67-2.64c-1.81-.16-3.65,0-5.56,0Z"/><path class="cls-5" d="M182.25,92.06l.13-2.09a18.37,18.37,0,0,1,4.31-.18c1.38-.05,2.75,0,4.11,0a10.43,10.43,0,0,1,.23,3.51c0,6.54-.21,13.09.06,19.61.34,8-4.65,11.85-10.8,12.71-4.61.64-9,0-12.71-3.07a9,9,0,0,1-3.35-6.8h8.43c2,3,4.13,4,6.89,3,3.86-1.3,2.49-4.54,2.82-7.57a10.39,10.39,0,0,1-8.71,3c-5.85-.71-9.47-4.86-10-11.25a15.64,15.64,0,0,1,.82-6.44C167.39,88.3,177.13,87.3,182.25,92.06Zm.15,9.51c0-3.17-1.69-5-4.71-5.11a5.22,5.22,0,0,0-.29,10.43C180.51,106.93,182.35,105,182.4,101.57Z"/><path class="cls-5" d="M247.81,92.05c.05-.82.09-1.4.13-2.12h8.53V115H248c-.06-.76-.11-1.5-.18-2.49-2.95,3.55-6.59,4-10.51,2.74-4.52-1.46-7-4.88-7.92-9.35-1.12-5.73-.09-11,4.92-14.68A10.73,10.73,0,0,1,247.81,92.05ZM243,96.46c-3.21,0-5.08,2.15-5.1,5.93s2,6.26,5.09,6.24,5.26-2.61,5.25-6.23S246.11,96.48,243,96.46Z"/><path class="cls-5" d="M116.27,108h10.22V115H98.08v-7h9.4V87.81H99.67V80.69h16.6Z"/><path class="cls-5" d="M144.9,89.24c8.27,0,13.94,5.44,13.9,13.26s-5.89,13.42-14.11,13.37-14-5.7-13.93-13.57C130.8,94.61,136.64,89.21,144.9,89.24Zm-5.23,13.27c0,3.32,1.49,5.46,4.07,5.94a4.77,4.77,0,0,0,5.69-3.09c1.21-3,.43-6.63-1.76-8.07a4.92,4.92,0,0,0-2.4-.82C141.79,96.24,139.65,98.54,139.67,102.51Z"/><path class="cls-5" d="M79.36,89.24c8.26.05,13.92,5.48,13.86,13.3s-5.93,13.4-14.15,13.34c-8.07-.07-13.86-5.65-13.89-13.42S71,89.2,79.36,89.24Zm-5.27,13.28c0,2.6.88,4.46,2.6,5.41a5,5,0,0,0,5.09,0c3.38-1.92,3.55-8.48.31-10.62a4.73,4.73,0,0,0-2.4-.82C76.21,96.25,74.07,98.55,74.09,102.52Z"/><path class="cls-5" d="M197.53,89.86h8.31c.53.93.09,1.89.35,2.77.41.25.56-.15.74-.36,2.91-3.34,6.64-3.64,10.53-2.52,3.73,1.08,5.48,4,5.86,7.69.59,5.79.07,11.6.29,17.56h-8.76c0-4,0-7.93,0-11.87a14,14,0,0,0-.2-2.75c-.45-2.16-1.71-3.34-3.52-3.47a4.58,4.58,0,0,0-4.55,2.88,8.91,8.91,0,0,0-.46,3.51v11.75h-8.58Z"/><path class="cls-5" d="M310.42,118.17v6.35h17.31v8.1H310.37v12H301c-.25-1.62-.34-31.44-.11-34.34,1.45-.36,24.58-.5,28-.14v8Z"/><path class="cls-5" d="M460.15,119.2v7.28H446.38c0,3-.09,5.75,0,8.49a3.08,3.08,0,0,0,2.49,2.78,10.25,10.25,0,0,0,6.8-.34c.85-.33,1.71-.64,2.75-1v7.26c-5,2.8-13.21,2.09-17.52-1.59a9.37,9.37,0,0,1-3.37-7.33c0-2.63,0-5.26,0-8.13h-7.11v-7.13c2-.72,4.53.62,6.15-1.41,1.45-1.81.74-4.08,1-6.12a29.22,29.22,0,0,1,8.63-.12v7.39Z"/><path class="cls-5" d="M425.9,144.58h-8.64V132.76a17,17,0,0,0-.1-2.77c-.3-1.72-1.09-3.13-3-3.47a4.3,4.3,0,0,0-4.84,2.27,8.81,8.81,0,0,0-.78,4.05c0,3.88,0,7.77,0,11.77H400V119.42h8.55v3.41a9.18,9.18,0,0,1,7.88-4.16c5.32,0,9.16,3,9.45,8.36C426.15,132.83,425.9,138.65,425.9,144.58Z"/><path class="cls-5" d="M378.56,118.67c7.73,0,12.6,3.07,14.53,8.08a13.72,13.72,0,0,1-3.25,15.11c-5,4.56-14.17,4.62-19.4.12a13.69,13.69,0,0,1-2.21-17.5A12.76,12.76,0,0,1,378.56,118.67Zm-3.66,13.46c.2,4.21,3,6.72,6.4,5.79,2.36-.64,3.68-2.5,3.93-5.54.23-2.79-1-5.17-3.13-6.08C378.3,124.68,374.68,127.61,374.9,132.13Z"/><path class="cls-5" d="M360.71,118.7v8.72c-2.09,0-4.12-.07-6.15,0a7.66,7.66,0,0,0-4.82,1.53c-1.24,1.05-1.34,2.51-1.47,4a18.06,18.06,0,0,0,0,4.35h9.58v7.32H334.6v-7.18h4.7v-10.8h-4.65v-7.28h13.48v4.23C351.55,119.34,355.88,118.66,360.71,118.7Z"/><path class="cls-5" d="M508.29,147.57v5.09h14.92v8.11H508.34v5.11h16.5V174h-26V139.53h26v8Z"/><path class="cls-5" d="M590.78,174.11h-8.49c-.07-.84-.14-1.65-.23-2.75a9.38,9.38,0,0,1-6.07,3.31c-5.74.53-10.21-2.45-12-8.23a16.45,16.45,0,0,1,.64-11.79c3.1-6.9,11.47-8.72,17.39-3.52v-11.6h8.71Zm-8.28-12.67c0-3.79-2.33-6.24-5.51-6.08s-5.07,2.68-4.82,6.84c.22,3.47,2.39,5.54,5.56,5.29a4.72,4.72,0,0,0,4-2.79A8,8,0,0,0,582.5,161.44Z"/><path class="cls-5" d="M557.86,174.1h-8.49a16.93,16.93,0,0,1-.2-4.66c0-2.77,0-5.54,0-8.32,0-3.36-1.39-5.15-3.86-5.21-2.95-.07-4.79,1.87-4.85,5.28-.07,4.22,0,8.45,0,12.83h-8.61V148.89h8.51l.17,3.22a9.1,9.1,0,0,1,7.73-4,8.74,8.74,0,0,1,9.35,7.62c.54,3,.23,6.06.28,9.09S557.86,170.87,557.86,174.1Z"/><path class="cls-2" d="M42.69,101.25c2.05,0,4-.09,5.87,0,1.62.09,3,.71,3.07,2.67s-.89,2.92-2.67,3.34c-2,.47-4.07.18-6.27.25Z"/><path class="cls-2" d="M42.61,93.92v-5.7c1.91,0,3.75-.13,5.56,0a2.58,2.58,0,0,1,2.67,2.64c0,1.81-1,2.63-2.58,2.94A22.61,22.61,0,0,1,42.61,93.92Z"/><path class="cls-2" d="M182.4,101.57c-.05,3.4-1.89,5.36-5,5.32a5.22,5.22,0,0,1,.29-10.43C180.71,96.52,182.45,98.4,182.4,101.57Z"/><path class="cls-2" d="M243,96.46c3.16,0,5.24,2.38,5.24,5.94s-2.17,6.2-5.25,6.23-5.11-2.39-5.09-6.24S239.74,96.44,243,96.46Z"/><path class="cls-2" d="M139.67,102.51c0-4,2.12-6.27,5.6-6a4.92,4.92,0,0,1,2.4.82c2.19,1.44,3,5.06,1.76,8.07a4.77,4.77,0,0,1-5.69,3.09C141.16,108,139.7,105.83,139.67,102.51Z"/><path class="cls-2" d="M74.09,102.52c0-4,2.12-6.27,5.6-6a4.73,4.73,0,0,1,2.4.82c3.24,2.14,3.07,8.7-.31,10.62a5,5,0,0,1-5.09,0C75,107,74.11,105.12,74.09,102.52Z"/><path class="cls-3" d="M374.9,132.13c-.22-4.52,3.4-7.45,7.2-5.83,2.13.91,3.36,3.29,3.13,6.08-.25,3-1.57,4.9-3.93,5.54C377.87,138.85,375.1,136.34,374.9,132.13Z"/><path class="cls-4" d="M582.5,161.44a8,8,0,0,1-.75,3.26,4.72,4.72,0,0,1-4,2.79c-3.17.25-5.34-1.82-5.56-5.29-.25-4.16,1.52-6.68,4.82-6.84S582.46,157.65,582.5,161.44Z"/></g></svg>